<svg width="34" height="34" viewBox="0 0 34 34" fill="none" xmlns="http://www.w3.org/2000/svg">
<circle cx="17" cy="17" r="17" fill="white"/>
<path d="M25.3375 18.4625L26.9789 11.2402C27.0974 10.7188 26.7011 10.2222 26.1663 10.2222H12.5281L12.2098 8.66632C12.1305 8.27851 11.7892 8 11.3934 8H7.83333C7.37309 8 7 8.37309 7 8.83333V9.38889C7 9.84913 7.37309 10.2222 7.83333 10.2222H10.2598L12.699 22.1471C12.1155 22.4826 11.7222 23.1119 11.7222 23.8333C11.7222 24.9072 12.5928 25.7778 13.6667 25.7778C14.7406 25.7778 15.6111 24.9072 15.6111 23.8333C15.6111 23.2891 15.3873 22.7974 15.0269 22.4444H22.3064C21.9461 22.7974 21.7222 23.2891 21.7222 23.8333C21.7222 24.9072 22.5928 25.7778 23.6667 25.7778C24.7406 25.7778 25.6111 24.9072 25.6111 23.8333C25.6111 23.0635 25.1636 22.3982 24.5146 22.0832L24.7062 21.2402C24.8247 20.7188 24.4283 20.2222 23.8936 20.2222H14.5735L14.3463 19.1111H24.5249C24.914 19.1111 25.2513 18.8419 25.3375 18.4625Z" fill="#040404"/>
</svg>
